<svg xmlns="http://www.w3.org/2000/svg" viewBox="0 0 281.44 273.37"><defs><style>.cls-1,.cls-2{fill:#fff;}.cls-2{font-size:55px;font-family:OpenSans-Bold, Open Sans;font-weight:700;}</style></defs><title>Recurso 3</title><g id="Capa_2" data-name="Capa 2"><g id="Capa_1-2" data-name="Capa 1"><path class="cls-1" d="M277.5,72.08,183.79,1.41a7,7,0,0,0-8.43,0L160,13,144.55,1.41a7,7,0,0,0-8.43,0l-15,11.33-15-11.33a7,7,0,0,0-8.43,0L3.94,72.08a7,7,0,0,0-2.78,5.59v119a7,7,0,0,0,7,7H273.29a7,7,0,0,0,7-7v-119a7,7,0,0,0-2.79-5.59ZM266.29,189.64H241v-112a7,7,0,0,0-2.79-5.59L171.58,21.8l8-6,86.71,65.39Zm-63.71,0v-112a7,7,0,0,0-2.79-5.59L132.73,21.51l7.61-5.74L227,81.16V189.64H202.58Zm-89.25,0H90.4V138.88h22.93Zm14,0V131.88a7,7,0,0,0-7-7H83.4a7,7,0,0,0-7,7v57.76H15.16V81.15l86.71-65.39,86.71,65.39V189.64Z"/><text class="cls-2" transform="translate(0 257.26)">RealHome</text></g></g></svg>